<mxfile host="Electron" modified="2023-06-27T14:00:03.368Z" agent="Mozilla/5.0 (Windows NT 10.0; Win64; x64) AppleWebKit/537.36 (KHTML, like Gecko) draw.io/21.5.0 Chrome/112.0.5615.204 Electron/24.5.1 Safari/537.36" etag="ZYOHdmgwu4YNq14egz4w" version="21.5.0" type="device">
  <diagram name="Page-1" id="zOitkXPEHhf0m86IgJ0V">
    <mxGraphModel dx="1194" dy="3152" grid="1" gridSize="10" guides="1" tooltips="1" connect="1" arrows="1" fold="1" page="1" pageScale="1" pageWidth="827" pageHeight="1169" math="0" shadow="0">
      <root>
        <mxCell id="0" />
        <mxCell id="1" parent="0" />
        <mxCell id="rbEFLcyK6tQvupdDlYNd-1" value="" style="ellipse;html=1;shape=startState;fillColor=#000000;strokeColor=#ff0000;" vertex="1" parent="1">
          <mxGeometry x="384" y="-1990" width="30" height="30" as="geometry" />
        </mxCell>
        <mxCell id="rbEFLcyK6tQvupdDlYNd-2" value="" style="edgeStyle=orthogonalEdgeStyle;html=1;verticalAlign=bottom;endArrow=open;endSize=8;strokeColor=#ff0000;rounded=0;" edge="1" source="rbEFLcyK6tQvupdDlYNd-1" parent="1">
          <mxGeometry relative="1" as="geometry">
            <mxPoint x="399" y="-1900" as="targetPoint" />
          </mxGeometry>
        </mxCell>
        <mxCell id="rbEFLcyK6tQvupdDlYNd-7" value="" style="edgeStyle=orthogonalEdgeStyle;rounded=0;orthogonalLoop=1;jettySize=auto;html=1;" edge="1" parent="1" source="rbEFLcyK6tQvupdDlYNd-4" target="rbEFLcyK6tQvupdDlYNd-6">
          <mxGeometry relative="1" as="geometry" />
        </mxCell>
        <mxCell id="rbEFLcyK6tQvupdDlYNd-4" value="Saisir a" style="html=1;whiteSpace=wrap;" vertex="1" parent="1">
          <mxGeometry x="344" y="-1900" width="110" height="50" as="geometry" />
        </mxCell>
        <mxCell id="rbEFLcyK6tQvupdDlYNd-9" value="" style="edgeStyle=orthogonalEdgeStyle;rounded=0;orthogonalLoop=1;jettySize=auto;html=1;" edge="1" parent="1" source="rbEFLcyK6tQvupdDlYNd-6" target="rbEFLcyK6tQvupdDlYNd-8">
          <mxGeometry relative="1" as="geometry" />
        </mxCell>
        <mxCell id="rbEFLcyK6tQvupdDlYNd-6" value="saisir b" style="whiteSpace=wrap;html=1;" vertex="1" parent="1">
          <mxGeometry x="339" y="-1775" width="120" height="60" as="geometry" />
        </mxCell>
        <mxCell id="rbEFLcyK6tQvupdDlYNd-11" value="" style="edgeStyle=orthogonalEdgeStyle;rounded=0;orthogonalLoop=1;jettySize=auto;html=1;" edge="1" parent="1" source="rbEFLcyK6tQvupdDlYNd-8" target="rbEFLcyK6tQvupdDlYNd-10">
          <mxGeometry relative="1" as="geometry" />
        </mxCell>
        <mxCell id="rbEFLcyK6tQvupdDlYNd-8" value="Saisir a et b" style="whiteSpace=wrap;html=1;" vertex="1" parent="1">
          <mxGeometry x="339" y="-1635" width="120" height="60" as="geometry" />
        </mxCell>
        <mxCell id="rbEFLcyK6tQvupdDlYNd-13" value="" style="edgeStyle=orthogonalEdgeStyle;rounded=0;orthogonalLoop=1;jettySize=auto;html=1;" edge="1" parent="1" source="rbEFLcyK6tQvupdDlYNd-10" target="rbEFLcyK6tQvupdDlYNd-12">
          <mxGeometry relative="1" as="geometry" />
        </mxCell>
        <mxCell id="rbEFLcyK6tQvupdDlYNd-10" value="c=b" style="whiteSpace=wrap;html=1;" vertex="1" parent="1">
          <mxGeometry x="339" y="-1495" width="120" height="60" as="geometry" />
        </mxCell>
        <mxCell id="rbEFLcyK6tQvupdDlYNd-15" value="" style="edgeStyle=orthogonalEdgeStyle;rounded=0;orthogonalLoop=1;jettySize=auto;html=1;" edge="1" parent="1" source="rbEFLcyK6tQvupdDlYNd-12" target="rbEFLcyK6tQvupdDlYNd-14">
          <mxGeometry relative="1" as="geometry" />
        </mxCell>
        <mxCell id="rbEFLcyK6tQvupdDlYNd-12" value="b = a" style="whiteSpace=wrap;html=1;" vertex="1" parent="1">
          <mxGeometry x="339" y="-1355" width="120" height="60" as="geometry" />
        </mxCell>
        <mxCell id="rbEFLcyK6tQvupdDlYNd-17" value="" style="edgeStyle=orthogonalEdgeStyle;rounded=0;orthogonalLoop=1;jettySize=auto;html=1;" edge="1" parent="1" source="rbEFLcyK6tQvupdDlYNd-14" target="rbEFLcyK6tQvupdDlYNd-16">
          <mxGeometry relative="1" as="geometry" />
        </mxCell>
        <mxCell id="rbEFLcyK6tQvupdDlYNd-14" value="a = c" style="whiteSpace=wrap;html=1;" vertex="1" parent="1">
          <mxGeometry x="339" y="-1215" width="120" height="60" as="geometry" />
        </mxCell>
        <mxCell id="rbEFLcyK6tQvupdDlYNd-19" value="" style="edgeStyle=orthogonalEdgeStyle;rounded=0;orthogonalLoop=1;jettySize=auto;html=1;" edge="1" parent="1" source="rbEFLcyK6tQvupdDlYNd-16" target="rbEFLcyK6tQvupdDlYNd-18">
          <mxGeometry relative="1" as="geometry" />
        </mxCell>
        <mxCell id="rbEFLcyK6tQvupdDlYNd-16" value="Afficher a et b" style="whiteSpace=wrap;html=1;" vertex="1" parent="1">
          <mxGeometry x="339" y="-1075" width="120" height="60" as="geometry" />
        </mxCell>
        <mxCell id="rbEFLcyK6tQvupdDlYNd-18" value="" style="ellipse;html=1;shape=endState;fillColor=#000000;strokeColor=#ff0000;" vertex="1" parent="1">
          <mxGeometry x="384" y="-960" width="30" height="30" as="geometry" />
        </mxCell>
      </root>
    </mxGraphModel>
  </diagram>
</mxfile>
